Coordinates
version=1
nRows=9
nColumns=63
inDegrees=yes

Units are S.I. units (second, meters, Newtons, ...)
If the header above contains a line with 'inDegrees', this indicates whether rotational values are in degrees (yes) or radians (no).

endheader
time	pelvis_tilt	pelvis_list	pelvis_rotation	pelvis_tx	pelvis_ty	pelvis_tz	hip_flexion_r	hip_adduction_r	hip_rotation_r	knee_angle_r	knee_angle_r_beta	ankle_angle_r	subtalar_angle_r	mtp_angle_r	hip_flexion_l	hip_adduction_l	hip_rotation_l	knee_angle_l	knee_angle_l_beta	ankle_angle_l	subtalar_angle_l	mtp_angle_l	L5_S1_Flex_Ext	L5_S1_Lat_Bending	L5_S1_axial_rotation	L4_L5_Flex_Ext	L4_L5_Lat_Bending	L4_L5_axial_rotation	L3_L4_Flex_Ext	L3_L4_Lat_Bending	L3_L4_axial_rotation	L2_L3_Flex_Ext	L2_L3_Lat_Bending	L2_L3_axial_rotation	L1_L2_Flex_Ext	L1_L2_Lat_Bending	L1_L2_axial_rotation	L1_T12_Flex_Ext	L1_T12_Lat_Bending	L1_T12_axial_rotation	Abs_r3	Abs_r2	Abs_r1	Abs_t1	Abs_t2	neck_flexion	neck_bending	neck_rotation	arm_flex_r	arm_add_r	arm_rot_r	elbow_flex_r	pro_sup_r	wrist_flex_r	wrist_dev_r	arm_flex_l	arm_add_l	arm_rot_l	elbow_flex_l	pro_sup_l	wrist_flex_l	wrist_dev_l
      0.00000000	     -0.92188010	     -4.48706671	    100.48655411	      0.25067840	      0.95965165	      0.23850808	     -2.85607632	     -0.26912727	     -8.54403205	      0.67290502	      0.01174441	     20.78202173	      0.46882936	      0.00000000	      3.08237686	      3.16066489	     11.87797504	      7.68786552	      0.13417857	     20.49872409	    -17.96343427	      0.00000000	      0.27357941	     -0.27975447	     -0.36640075	      0.50806432	     -0.37207344	     -0.38930080	      0.44946361	     -0.68019502	     -0.38930080	      0.31267391	     -0.68019502	     -0.32060065	      0.25404584	     -0.57047531	     -0.29770061	      0.15632328	     -0.43333967	     -0.27480056	      1.95415037	     -3.16463851	     -2.03781104	      0.00000000	      0.00000000	      9.31245506	      1.31978957	     -4.84057523	      7.85287286	     -4.44494444	     61.15012243	     38.59333385	     11.49851606	     -1.22064476	      8.56500961	     17.39267781	     -3.80989917	     74.03360771	     39.22062701	     57.06677431	     -5.70124385	      0.85748672
      0.01666667	     -1.03877829	     -4.75752201	     99.01353882	      0.25216617	      0.95883498	      0.24012764	     -2.18337812	     -0.59791095	     -8.17769095	      1.10096307	      0.01921543	     20.65288404	      1.06282066	      0.00000000	      3.50332199	      3.28027098	     10.34258767	      8.17886906	      0.14274819	     20.48921803	    -17.76440168	      0.00000000	      0.28777988	     -0.28051141	     -0.10822052	      0.53443601	     -0.37308018	     -0.11498430	      0.47279356	     -0.68203545	     -0.11498430	      0.32890362	     -0.68203545	     -0.09469295	      0.26723239	     -0.57201887	     -0.08792917	      0.16443742	     -0.43451218	     -0.08116539	      2.05558288	     -3.17320119	     -0.60189004	      0.00000000	      0.00000000	      9.68826925	      1.23986364	     -4.57281161	      7.78804799	     -4.59795510	     60.58528280	     38.66549754	     10.62772878	     -0.34341053	      8.06556546	     17.68752932	     -3.85379451	     74.20006160	     39.54534060	     56.92781263	     -5.84423010	      0.85667956
      0.03333333	     -1.17232104	     -5.01479036	     97.90289707	      0.25327549	      0.95805740	      0.24205950	     -1.36345776	     -0.92396299	     -8.08731547	      1.82761490	      0.03189790	     20.96415355	      1.63263046	      0.00000000	      3.85554770	      3.40868969	      9.26797750	      8.40889721	      0.14676294	     20.55583441	    -17.64521227	      0.00000000	      0.28856786	     -0.28603426	      0.07465923	      0.53589937	     -0.38042557	      0.07932544	      0.47408813	     -0.69546371	      0.07932544	      0.32980420	     -0.69546371	      0.06532683	      0.26796411	     -0.58328107	      0.06066063	      0.16488767	     -0.44306707	      0.05599443	      2.06121135	     -3.23567680	      0.41523226	      0.00000000	      0.00000000	     10.35748967	      1.06341768	     -4.42704753	      7.86203316	     -4.79243659	     60.40926729	     38.88376750	     10.08001643	      0.26255832	      7.74780922	     18.05924488	     -4.02829138	     74.42641533	     39.96222365	     56.90340970	     -5.74087172	      0.76683433
      0.05000000	     -1.28020670	     -5.32576398	     96.07560647	      0.25488405	      0.95756715	      0.24473030	      0.68804611	     -1.84458616	    -16.16198348	      4.82814882	      0.08426709	     23.76386099	     14.29048371	      0.00000000	      4.38815393	      3.46041805	      7.05871865	      8.76571273	      0.15299055	     21.04509249	    -16.88987073	      0.00000000	      0.29924698	     -0.28492299	      0.40376532	      0.55573157	     -0.37894758	      0.42900065	      0.49163287	     -0.69276177	      0.42900065	      0.34200938	     -0.69276177	      0.35329465	      0.27788075	     -0.58101497	      0.32805932	      0.17098973	     -0.44134572	      0.30282399	      2.13749129	     -3.22310589	      2.24562158	      0.00000000	      0.00000000	     10.60955464	      0.98402967	     -4.61966938	      8.19542275	     -5.07424295	     61.07187053	     38.93158584	      7.67424592	      1.10410889	      7.17473887	     18.71667213	     -3.81757118	     75.41729860	     39.76601994	     55.96819883	     -5.66980625	      0.39205473
      0.06666667	     -1.53333916	     -5.56128828	     94.84047082	      0.25604124	      0.95699548	      0.24644669	      1.82214534	     -2.42606849	    -16.31206358	      6.21551512	      0.10848120	     24.61721890	     15.61808497	      0.00000000	      4.64642589	      3.68773550	      6.07417476	      8.78375118	      0.15330538	     21.22552936	    -16.99269918	      0.00000000	      0.30458212	     -0.30607208	      0.61809634	      0.56563946	     -0.40707587	      0.65672736	      0.50039797	     -0.74418366	      0.65672736	      0.34810691	     -0.74418366	      0.54083429	      0.28283496	     -0.62414219	      0.50220327	      0.17403823	     -0.47410565	      0.46357225	      2.17559966	     -3.46234860	      3.43766639	      0.00000000	      0.00000000	     11.00881420	      0.97022893	     -4.63913400	      8.35215580	     -5.20563202	     61.28319156	     38.92742738	      8.72549245	      1.80140929	      6.73588164	     19.01135490	     -3.90430342	     75.45804730	     39.92293426	     56.28456737	     -5.15540745	      0.42078659
      0.08333333	     -1.70780111	     -5.76791933	     93.81147635	      0.25688077	      0.95652301	      0.24772508	      2.69803493	     -2.81483250	    -16.08130081	      7.14265183	      0.12466279	     25.21729106	     16.45073595	      0.00000000	      4.86327431	      3.81508449	      4.99424160	      8.75459733	      0.15279655	     21.58400608	    -16.70390762	      0.00000000	      0.31673387	     -0.31594906	      0.79536029	      0.58820646	     -0.42021225	      0.84507031	      0.52036207	     -0.76819854	      0.84507031	      0.36199514	     -0.76819854	      0.69594026	      0.29411907	     -0.64428332	      0.64623024	      0.18098173	     -0.48940509	      0.59652022	      2.26239833	     -3.57407894	      4.42355533	      0.00000000	      0.00000000	     11.23322565	      0.84034733	     -4.59937128	      8.40044780	     -5.34186448	     61.23898340	     38.92683031	     10.66591681	      2.34056541	      6.41869351	     19.29752791	     -3.92763010	     75.73247672	     39.95274002	     56.44022267	     -4.65333295	      0.24847371
      0.10000000	     -1.85337093	     -5.89976569	     93.20180429	      0.25729842	      0.95615039	      0.24870665	      3.31417871	     -3.10205748	    -16.01747388	      7.82077103	      0.13649820	     25.60976977	     17.03326771	      0.00000000	      4.99599762	      3.93973346	      4.43558620	      8.70605647	      0.15194935	     21.83262674	    -16.54625424	      0.00000000	      0.31991807	     -0.32646331	      0.90635745	      0.59411985	     -0.43419621	      0.96300479	      0.52559340	     -0.79376290	      0.96300479	      0.36563436	     -0.79376290	      0.79306277	      0.29707592	     -0.66572399	      0.73641543	      0.18280118	     -0.50569167	      0.67976809	      2.28514277	     -3.69301828	      5.04088823	      0.00000000	      0.00000000	     11.47876519	      0.74951126	     -4.64908884	      8.43161538	     -5.44140759	     60.98412774	     39.00698689	     12.06221717	      2.58155806	      6.53117961	     19.51968554	     -3.96817496	     75.80901564	     39.99352910	     56.65407815	     -4.06152274	      0.29555231
      0.11666667	     -2.00146938	     -6.02847102	     92.59514765	      0.25779273	      0.95579824	      0.24946704	      3.83781516	     -3.31167696	    -15.23780017	      8.31519204	      0.14512748	     25.85637907	     16.82626602	      0.00000000	      5.15262367	      4.07402096	      4.02440971	      8.72293655	      0.15224396	     21.79671917	    -16.79532905	      0.00000000	      0.32827415	     -0.33997914	      0.99066013	      0.60963792	     -0.45217226	      1.05257639	      0.53932160	     -0.82662528	      1.05257639	      0.37518452	     -0.82662528	      0.86682761	      0.30483537	     -0.69328546	      0.80491136	      0.18757585	     -0.52662769	      0.74299510	      2.34482941	     -3.84591202	      5.50975445	      0.00000000	      0.00000000	     11.66137274	      0.80775348	     -4.59030961	      8.72662731	     -5.51269957	     61.61378563	     39.27134638	      8.70404956	      2.23370644	      6.93745739	     19.43075273	     -4.03208572	     74.87248174	     40.01062524	     57.80823549	     -3.08434087	      0.82806021
      0.13333333	     -2.10366694	     -6.07992539	     92.07021288	      0.25817308	      0.95555554	      0.24990893	      4.17930752	     -3.44379375	    -14.58526200	      8.69009788	      0.15167082	     25.97973384	     16.69001082	      0.00000000	      5.13363483	      4.15230310	      3.45210989	      8.57592551	      0.14967814	     21.69668467	    -16.66826078	      0.00000000	      0.32977561	     -0.34840157	      1.08309565	      0.61242629	     -0.46337409	      1.15078913	      0.54178835	     -0.84710358	      1.15078913	      0.37690055	     -0.84710358	      0.94770869	      0.30622963	     -0.71046049	      0.88001521	      0.18843378	     -0.53967404	      0.81232174	      2.35555422	     -3.94118827	      6.02385306	      0.00000000	      0.00000000	     11.76623188	      0.83124454	     -4.65762069	      8.80070925	     -5.53381340	     61.23547851	     39.45210552	      7.72847726	      1.82937448	      7.42895677	     19.56370371	     -4.00276677	     74.74535885	     39.89664950	     57.69148552	     -2.38728194	      1.24714141
